#!OML:ASF X:\für Bonn\!DataBase\2005_08_10_Bjorn_Final\c3d\bjorn.ASF
:FULLY-SPECIFIED
:DEGREES
157
root 0.608258 19.3726 2.60016 -184.481 -20.4521 -173.968
lowerback -6.55546 -6.33262 2.10922
upperback 7.00857 -9.43123 2.24338
thorax 11.2593 -4.63883 -0.305255
lowerneck -7.35262 -1.62992 -0.513345
upperneck 23.2108 -3.93387 0.690723
head 8.43404 -2.41361 -0.135422
rclavicle -3.11098e-014 -6.70898e-015
rhumerus -38.081 -15.3938 -71.895
rradius 30.707
rwrist 16.517
rhand -5.15515 10.4076
rfingers 7.12502
rthumb 20.6443 -18.5145
lclavicle -3.11098e-014 -6.70898e-015
lhumerus -9.29073 -37.0018 80.198
lradius 67.8728
lwrist 4.90129
lhand -33.9248 -23.5348
lfingers 7.12502
lthumb -7.10693 6.32587
rfemur -27.7639 -7.32889 18.8667
rtibia 65.0111
rfoot -1.57498 0.797978
rtoes -34.0029
lfemur -4.49524 16.0509 -12.4939
ltibia 25.521
lfoot -8.95652 -21.1976
ltoes 10.5084
158
root 0.600418 19.3456 2.55738 -183.706 -19.5375 -174.393
lowerback -7.45418 -6.13361 2.34685
upperback 6.58374 -9.14107 2.21176
thorax 11.2726 -4.44699 -0.496881
lowerneck -7.37223 -1.41224 -0.628467
upperneck 23.6141 -3.59334 0.323968
head 8.56688 -2.32009 -0.215191
rclavicle 3.32095e-014 -1.13307e-014
rhumerus -37.5185 -16.285 -71.7091
rradius 29.737
rwrist 17.3853
rhand -5.37139 10.398
rfingers 7.12502
rthumb 20.4365 -18.5465
lclavicle 3.32095e-014 -1.13307e-014
lhumerus -11.3563 -37.5302 81.2149
lradius 65.465
lwrist 3.74092
lhand -32.8111 -23.0322
lfingers 7.12502
lthumb -6.03187 6.86191
rfemur -26.3197 -7.4932 18.8546
rtibia 62.7052
rfoot -2.42201 1.10223
rtoes -35.3077
lfemur -5.2835 17.6224 -12.787
ltibia 26.2756
lfoot -9.07704 -22.0692
ltoes 11.1968
159
root 0.595408 19.3202 2.51491 -183.018 -18.6742 -174.808
lowerback -8.24638 -5.94516 2.56713
upperback 6.18287 -8.86826 2.15439
thorax 11.2504 -4.26997 -0.694441
lowerneck -7.35795 -1.19477 -0.673071
upperneck 23.9898 -3.26459 -0.0369952
head 8.68492 -2.22837 -0.305663
rclavicle 5.59827e-014 -1.51076e-014
rhumerus -36.9479 -17.2259 -71.5699
rradius 28.7649
rwrist 18.271
rhand -5.49446 10.3297
rfingers 7.12502
rthumb 20.3183 -18.6275
lclavicle 5.59827e-014 -1.51076e-014
lhumerus -13.5134 -37.8055 82.3439
lradius 63.1088
lwrist 2.26551
lhand -31.5748 -22.5716
lfingers 7.12502
lthumb -4.83819 7.35311
rfemur -24.8176 -7.77471 18.8014
rtibia 60.4289
rfoot -3.45348 1.50794
rtoes -36.4044
lfemur -6.02868 19.1842 -13.0701
ltibia 27.0734
lfoot -9.13721 -22.9991
ltoes 12.0831
160
root 0.593173 19.2897 2.47505 -182.383 -17.8124 -175.216
lowerback -8.94378 -5.76372 2.75765
upperback 5.79124 -8.61017 2.11537
thorax 11.1924 -4.10961 -0.846127
lowerneck -7.32858 -2.99412 -0.486679
upperneck 24.3439 -2.252 -1.03556
head 8.78171 -0.584183 -0.388075
rclavicle -3.78436e-014 2.54444e-014
rhumerus -36.3293 -18.1023 -71.4617
rradius 27.8157
rwrist 19.0543
rhand -5.56634 10.1863
rfingers 7.12502
rthumb 20.2492 -18.7782
lclavicle -3.78436e-014 2.54444e-014
lhumerus -15.6862 -37.8229 83.5725
lradius 60.8004
lwrist 0.526516
lhand -30.4526 -22.3018
lfingers 7.12502
lthumb -3.75456 7.64491
rfemur -23.2796 -8.09456 18.7224
rtibia 58.1583
rfoot -4.7636 2.00777
rtoes -36.8919
lfemur -6.66978 20.4185 -13.4165
ltibia 27.9193
lfoot -9.91803 -23.4522
ltoes 11.2037
161
root 0.592759 19.2545 2.43731 -181.792 -16.9391 -175.581
lowerback -9.60584 -5.56609 2.98237
upperback 5.42808 -8.34509 2.07634
thorax 11.1433 -3.9473 -1.0106
lowerneck -7.22609 -2.84251 -0.553975
upperneck 24.5954 -1.88304 -1.38631
head 8.84834 -0.429811 -0.456927
rclavicle -1.60519e-014 -1.03368e-014
rhumerus -35.6903 -19.1192 -71.3471
rradius 26.8616
rwrist 19.9772
rhand -5.65927 10.0007
rfingers 7.12502
rthumb 20.1599 -18.9733
lclavicle -1.60519e-014 -1.03368e-014
lhumerus -17.8106 -37.6107 84.8087
lradius 58.5206
lwrist -1.4834
lhand -29.5425 -22.257
lfingers 7.12502
lthumb -2.87567 7.70333
rfemur -21.7588 -8.46844 18.6496
rtibia 55.8596
rfoot -6.36176 2.61481
rtoes -36.8717
lfemur -7.31586 21.649 -13.7276
ltibia 28.7924
lfoot -10.6693 -23.8874
ltoes 10.4724
162
root 0.593999 19.2186 2.4033 -181.265 -16.0923 -175.904
lowerback -10.2014 -5.36765 3.22833
upperback 5.12367 -8.09269 2.02995
thorax 11.1192 -3.79296 -1.1911
lowerneck -7.15991 -2.68145 -0.492721
upperneck 24.7801 -1.52238 -1.78496
head 8.89765 -0.277887 -0.565681
rclavicle 1.54307e-014 -7.15625e-015
rhumerus -34.9536 -20.2038 -71.3157
rradius 25.9108
rwrist 20.8232
rhand -5.74346 9.79443
rfingers 7.12502
rthumb 20.0789 -19.188
lclavicle 1.54307e-014 -7.15625e-015
lhumerus -19.7999 -37.1589 85.9571
lradius 56.3295
lwrist -3.5723
lhand -28.94 -22.4772
lfingers 7.12502
lthumb -2.29375 7.49022
rfemur -20.2845 -8.84722 18.5793
rtibia 53.5077
rfoot -8.10035 3.27756
rtoes -35.9569
lfemur -7.93428 22.7965 -14.0094
ltibia 29.6716
lfoot -11.4462 -24.2605
ltoes 9.60601
163
root 0.598138 19.1844 2.37148 -180.745 -15.242 -176.206
lowerback -10.7939 -5.21676 3.39461
upperback 4.87289 -7.91273 2.03725
thorax 11.1735 -3.68296 -1.28677
lowerneck -7.14821 -2.4667 -0.448133
upperneck 24.9035 -1.09246 -2.19983
head 8.93884 -0.102819 -0.671703
rclavicle 4.34344e-014 1.23246e-014
rhumerus -34.0494 -21.209 -71.363
rradius 24.9822
rwrist 21.6741
rhand -5.89372 9.51861
rfingers 7.12502
rthumb 19.9345 -19.4789
lclavicle 4.34344e-014 1.23246e-014
lhumerus -21.6612 -36.1561 87.0126
lradius 54.2752
lwrist -5.87348
lhand -28.5954 -22.891
lfingers 7.12502
lthumb -1.96095 7.07969
rfemur -18.9229 -9.19058 18.5106
rtibia 51.1319
rfoot -9.88617 3.94309
rtoes -34.3264
lfemur -8.59929 23.5602 -14.3413
ltibia 30.555
lfoot -12.2454 -24.242
ltoes 8.92786
